<?xml version="1.0"?>
<svg xmlns="http://www.w3.org/2000/svg" xmlns:xlink="http://www.w3.org/1999/xlink" xmlns:svgjs="http://svgjs.com/svgjs" version="1.1" width="512" height="512" x="0" y="0" viewBox="0 0 291.319 291.319" style="enable-background:new 0 0 512 512" xml:space="preserve"><g>
<g xmlns="http://www.w3.org/2000/svg">
	<path style="" d="M145.659,0c80.44,0,145.66,65.219,145.66,145.66c0,80.45-65.219,145.659-145.66,145.659   S0,226.109,0,145.66C0,65.219,65.21,0,145.659,0z" fill="#00bceb" data-original="#f4b459"/>
	<path style="" d="M109.254,163.831c-10.06,0-18.226,8.157-18.226,18.226s8.157,18.226,18.226,18.226   s18.226-8.157,18.226-18.226S119.322,163.831,109.254,163.831z M103.873,118.367c-7.074,0-12.8,5.726-12.8,12.8   c0,7.064,5.726,12.8,12.8,12.8c23.997,0,43.525,19.527,43.525,43.525c0,7.064,5.726,12.8,12.809,12.8c7.055,0,12.8-5.735,12.8-12.8   C173.007,149.374,141.991,118.367,103.873,118.367z M104.119,72.839c-7.228,0-13.091,5.863-13.091,13.091   s5.863,13.091,13.091,13.091c48.623,0,88.188,39.556,88.188,88.179c0,7.228,5.854,13.091,13.091,13.091s13.091-5.872,13.091-13.091   C218.48,124.138,167.172,72.839,104.119,72.839z" fill="#ffffff" data-original="#ffffff"/>
</g>
<g xmlns="http://www.w3.org/2000/svg">
</g>
<g xmlns="http://www.w3.org/2000/svg">
</g>
<g xmlns="http://www.w3.org/2000/svg">
</g>
<g xmlns="http://www.w3.org/2000/svg">
</g>
<g xmlns="http://www.w3.org/2000/svg">
</g>
<g xmlns="http://www.w3.org/2000/svg">
</g>
<g xmlns="http://www.w3.org/2000/svg">
</g>
<g xmlns="http://www.w3.org/2000/svg">
</g>
<g xmlns="http://www.w3.org/2000/svg">
</g>
<g xmlns="http://www.w3.org/2000/svg">
</g>
<g xmlns="http://www.w3.org/2000/svg">
</g>
<g xmlns="http://www.w3.org/2000/svg">
</g>
<g xmlns="http://www.w3.org/2000/svg">
</g>
<g xmlns="http://www.w3.org/2000/svg">
</g>
<g xmlns="http://www.w3.org/2000/svg">
</g>
</g></svg>
