<svg width="174" height="175" xmlns="http://www.w3.org/2000/svg" xmlns:xlink="http://www.w3.org/1999/xlink" xml:space="preserve" overflow="hidden"><g transform="translate(-1016 -613)"><g><g><g><g><path d="M146.982 26.0176C126.236 5.27109 96.1637 5.40625 86.5 5.40625 76.8363 5.40625 46.7641 5.27109 26.0176 26.0176 5.20352 46.7641 5.40625 76.8363 5.40625 86.5 5.40625 96.1637 5.20352 126.236 26.0176 146.982 46.7641 167.796 76.8363 167.594 86.5 167.594 96.1637 167.594 126.236 167.796 146.982 146.982 167.729 126.236 167.594 96.1637 167.594 86.5 167.594 76.8363 167.796 46.7641 146.982 26.0176Z" stroke="#FFFFFF" stroke-width="2.70312" stroke-linecap="butt" stroke-linejoin="miter" stroke-miterlimit="4" stroke-opacity="1" fill="#00BCEB" fill-rule="nonzero" fill-opacity="1" transform="matrix(1 0 0 1.00578 1017 614)"/><path d="M94.5418 79.8773 125.898 43.4527 118.464 43.4527 91.2305 75.0793 69.4703 43.4527 44.3988 43.4527 77.2418 91.298 44.3988 129.48 51.8324 129.48 80.5531 96.0961 103.53 129.48 128.601 129.48 94.5418 79.8773ZM84.3375 91.7711 81.0262 86.973 54.468 49.0617 65.8887 49.0617 87.3109 79.6746 90.6223 84.4727 118.397 124.209 106.976 124.209 84.3375 91.7711Z" stroke="#FFFFFF" stroke-width="2.70312" stroke-linecap="butt" stroke-linejoin="miter" stroke-miterlimit="4" stroke-opacity="1" fill="#00BCEB" fill-rule="nonzero" fill-opacity="1" transform="matrix(1 0 0 1.00578 1017 614)"/></g></g></g></g></g></svg>