<svg width="200" height="200" xmlns="http://www.w3.org/2000/svg" xmlns:xlink="http://www.w3.org/1999/xlink" xml:space="preserve" overflow="hidden"><g transform="translate(-196 -76)"><g><g><g><g><path d="M312.45 173.838 290.102 163.411C288.152 162.505 286.55 163.52 286.55 165.679L286.55 185.321C286.55 187.48 288.152 188.495 290.102 187.589L312.44 177.162C314.4 176.246 314.4 174.754 312.45 173.838ZM296.5 79.98C243.745 79.98 200.98 122.745 200.98 175.5 200.98 228.255 243.745 271.02 296.5 271.02 349.255 271.02 392.02 228.255 392.02 175.5 392.02 122.745 349.255 79.98 296.5 79.98ZM296.5 214.305C247.606 214.305 246.75 209.897 246.75 175.5 246.75 141.103 247.606 136.695 296.5 136.695 345.394 136.695 346.25 141.103 346.25 175.5 346.25 209.897 345.394 214.305 296.5 214.305Z" fill="#00BCEB" fill-rule="nonzero" fill-opacity="1"/></g></g></g></g></g></svg>