<svg width="373" height="372" xmlns="http://www.w3.org/2000/svg" xmlns:xlink="http://www.w3.org/1999/xlink" xml:space="preserve" overflow="hidden"><g transform="translate(-21 -314)"><g><g><g><g><path d="M293.948 54.2359 77.0519 54.2359C34.4973 54.2359 0 88.7332 0 131.288L0 239.713C0 282.268 34.4973 316.765 77.0519 316.765L293.948 316.765C336.503 316.765 371 282.268 371 239.713L371 131.288C371 88.7332 336.503 54.2359 293.948 54.2359ZM241.838 190.776 140.389 239.161C137.686 240.45 134.563 238.479 134.563 235.485L134.563 135.69C134.563 132.653 137.768 130.684 140.477 132.057L241.926 183.467C244.942 184.995 244.89 189.321 241.838 190.776Z" stroke="#FFFFFF" stroke-width="0.804723" stroke-linecap="butt" stroke-linejoin="miter" stroke-miterlimit="4" stroke-opacity="1" fill="#00BCEB" fill-rule="nonzero" fill-opacity="1" transform="matrix(1.0027 0 0 1 22 315)"/></g></g></g></g></g></svg>